:SAMPLES-PER-SECOND 30
:FULLY-SPECIFIED
:DEGREES
276
root  -15.4154 40.76 -10.9766 168.094 -75.9974 -171.835
RightUpLeg  0.358561 -7.81752 -3.83984
RightLeg  7.9266 2.76675 3.83964
RightFoot  -2.63588 0.0626368 -1.06499
RightToes  0.00048216 0.542163 -0.142577
Spine  -7.82938 -0.60056 6.86187
Spine1  17.9604 -3.21092 5.89372
HEad  -25.2225 9.34193 7.75729
LeftShoulder1  9.92104 -17.2975 -41.3447
LeftArm  57.0549 33.2193 0.618436
LeftForeArm  -166.435 -78.0982 -139.364
LeftHand  -0.25398 0.0180481 5.50724
RightShoulder  4.65622 10.5425 27.1103
RightArm  58.2227 -28.1771 -0.281677
RightForeArm  -175.697 71.0861 153.714
RightHand  -9.22057 25.4159 -34.071
LeftUpLeg  9.14904 9.56356 10.7624
LeftLeg  6.68325 16.8092 -0.672266
LeftFoot  -7.91115 0.23629 -6.30397
LeftToes  1.06246e-005 4.65855e-005 -8.18503e-006
277
root  -15.4395 40.7527 -11.2341 167.642 -75.805 -171.419
RightUpLeg  0.494929 -7.69932 -3.35753
RightLeg  8.02369 2.7016 3.96317
RightFoot  -2.84836 0.0911767 -1.4915
RightToes  0.00048216 0.542163 -0.142577
Spine  -7.52191 -0.839306 7.01174
Spine1  18.2374 -3.52356 6.08105
HEad  -25.2466 9.76106 7.22918
LeftShoulder1  9.80283 -17.2334 -40.9485
LeftArm  56.6804 33.5114 -0.0171049
LeftForeArm  -166.956 -78.2714 -138.642
LeftHand  -0.25398 0.0180481 5.50724
RightShoulder  4.56358 10.379 26.8242
RightArm  57.5247 -28.1793 0.22256
RightForeArm  -174.932 70.9861 153.953
RightHand  -9.04461 25.3183 -33.5654
LeftUpLeg  9.38476 9.75173 11.3326
LeftLeg  6.63069 16.7384 -0.60966
LeftFoot  -7.76138 0.251358 -6.56138
LeftToes  1.06246e-005 4.65855e-005 -8.18503e-006
278
root  -15.4511 40.7451 -11.4823 167.103 -75.756 -170.868
RightUpLeg  0.587629 -7.5736 -2.86821
RightLeg  8.093 2.46949 4.07107
RightFoot  -3.03385 0.117214 -1.88762
RightToes  0.00048216 0.542163 -0.142577
Spine  -7.13368 -1.07191 7.14939
Spine1  18.4141 -3.80452 6.21929
HEad  -25.0236 10.2181 6.84204
LeftShoulder1  9.73212 -17.1373 -40.8341
LeftArm  56.3667 34.0034 -0.279773
LeftForeArm  -167.176 -78.3178 -138.431
LeftHand  -0.25398 0.0180481 5.50724
RightShoulder  4.46093 10.1527 26.6106
RightArm  56.4655 -28.699 0.689316
RightForeArm  -173.276 70.794 154.427
RightHand  -8.68156 25.1021 -32.5244
LeftUpLeg  9.52746 9.93427 11.9168
LeftLeg  6.5709 16.4862 -0.57908
LeftFoot  -7.62682 0.265359 -6.82622
LeftToes  1.06246e-005 4.65855e-005 -8.18503e-006
279
root  -15.4568 40.7354 -11.7218 166.557 -75.8398 -170.215
RightUpLeg  0.582794 -7.43297 -2.3695
RightLeg  8.15768 2.08234 4.1526
RightFoot  -3.23349 0.142723 -2.28211
RightToes  0.00048216 0.542163 -0.142577
Spine  -6.85121 -1.26402 7.25236
Spine1  18.6187 -4.03577 6.31099
HEad  -24.598 10.5708 6.74354
LeftShoulder1  9.69003 -17.0174 -40.9013
LeftArm  55.8999 34.4571 -0.307234
LeftForeArm  -166.73 -78.2571 -138.732
LeftHand  -0.25398 0.0180481 5.50724
RightShoulder  4.38135 9.92613 26.5682
RightArm  55.1854 -29.5929 1.04011
RightForeArm  -171.116 70.527 155.051
RightHand  -8.21728 24.7992 -31.1901
LeftUpLeg  9.55334 10.0614 12.4807
LeftLeg  6.46002 16.1198 -0.580662
LeftFoot  -7.494 0.285158 -7.17466
LeftToes  1.06246e-005 4.65855e-005 -8.18503e-006
280
root  -15.4512 40.7266 -11.9473 166.201 -75.978 -169.652
RightUpLeg  0.457285 -7.27212 -1.89514
RightLeg  8.19546 1.65139 4.19957
RightFoot  -3.41442 0.165531 -2.63926
RightToes  0.00048216 0.542163 -0.142577
Spine  -6.71539 -1.37254 7.34962
Spine1  18.9045 -4.16574 6.32045
HEad  -23.9831 10.6744 6.7604
LeftShoulder1  9.63294 -16.8905 -40.9153
LeftArm  55.2578 34.7586 -0.406609
LeftForeArm  -166.097 -78.2017 -139.041
LeftHand  -0.25398 0.0180481 5.50724
RightShoulder  4.3367 9.75983 26.6436
RightArm  53.8017 -30.7131 1.33608
RightForeArm  -169.112 70.2491 155.651
RightHand  -7.72911 24.3911 -29.834
LeftUpLeg  9.43953 10.1166 12.9414
LeftLeg  6.30954 15.8066 -0.583915
LeftFoot  -7.33235 0.307012 -7.51115
LeftToes  1.06246e-005 4.65855e-005 -8.18503e-006
281
root  -15.4268 40.7209 -12.1503 165.981 -76.1516 -169.23
RightUpLeg  0.3156 -7.12846 -1.49445
RightLeg  8.18096 1.23456 4.2402
RightFoot  -3.53322 0.183813 -2.9287
RightToes  0.00048216 0.542163 -0.142577
Spine  -6.5466 -1.41669 7.52858
Spine1  19.2201 -4.17455 6.17372
HEad  -23.1965 10.5959 6.7747
LeftShoulder1  9.54508 -16.7907 -40.7272
LeftArm  54.6293 34.9346 -0.706974
LeftForeArm  -165.646 -78.1924 -139.148
LeftHand  -0.25398 0.0180481 5.50724
RightShoulder  4.30823 9.63708 26.7359
RightArm  52.4476 -31.8591 1.67045
RightForeArm  -167.487 70.0155 156.134
RightHand  -7.28194 23.9643 -28.6004
LeftUpLeg  9.25744 10.1167 13.2808
LeftLeg  6.16701 15.5704 -0.552575
LeftFoot  -7.14331 0.325408 -7.70448
LeftToes  1.06246e-005 4.65855e-005 -8.18503e-006
282
root  -15.3873 40.7174 -12.3319 165.744 -76.407 -168.874
RightUpLeg  0.249434 -7.05115 -1.18984
RightLeg  8.1414 0.805699 4.30501
RightFoot  -3.60793 0.199861 -3.18414
RightToes  0.00048216 0.542163 -0.142577
Spine  -6.23674 -1.45211 7.74001
Spine1  19.5594 -4.12412 5.92456
HEad  -22.3383 10.4742 6.87617
LeftShoulder1  9.45621 -16.747 -40.4096
LeftArm  54.1179 35.0803 -1.07473
LeftForeArm  -165.107 -78.1637 -139.338
LeftHand  -0.25398 0.0180481 5.50724
RightShoulder  4.2772 9.51539 26.8067
RightArm  51.2924 -32.791 2.05862
RightForeArm  -166.094 69.8621 156.48
RightHand  -6.9375 23.6586 -27.5994
LeftUpLeg  9.10381 10.0888 13.552
LeftLeg  6.0286 15.3055 -0.509638
LeftFoot  -6.93182 0.340987 -7.77127
LeftToes  1.06246e-005 4.65855e-005 -8.18503e-006
283
root  -15.3371 40.7152 -12.4987 165.625 -76.7241 -168.642
RightUpLeg  0.148531 -7.01922 -0.954966
RightLeg  8.13166 0.366237 4.37227
RightFoot  -3.66937 0.215873 -3.4379
RightToes  0.00048216 0.542163 -0.142577
Spine  -5.884 -1.48458 7.80682
Spine1  19.9286 -4.07903 5.74501
HEad  -21.5057 10.3332 7.07633
LeftShoulder1  9.40368 -16.7522 -40.1529
LeftArm  53.6488 35.2874 -1.33123
LeftForeArm  -164.375 -78.0819 -139.749
LeftHand  -0.25398 0.0180481 5.50724
RightShoulder  4.24563 9.41079 26.8293
RightArm  50.5066 -33.3322 2.46214
RightForeArm  -165.156 69.835 156.616
RightHand  -6.74314 23.4929 -27.0167
LeftUpLeg  8.93189 10.0762 13.7802
LeftLeg  5.86402 14.9918 -0.518931
LeftFoot  -6.68548 0.357496 -7.80135
LeftToes  1.06246e-005 4.65855e-005 -8.18503e-006
284
root  -15.2687 40.7145 -12.6488 165.844 -77.0203 -168.622
RightUpLeg  -0.161848 -6.96348 -0.741583
RightLeg  8.15827 -0.0515716 4.39945
RightFoot  -3.68888 0.23163 -3.68464
RightToes  0.00048216 0.542163 -0.142577
Spine  -5.56322 -1.48344 7.73782
Spine1  20.2371 -4.01186 5.6268
HEad  -20.7366 10.151 7.21479
LeftShoulder1  9.37837 -16.7636 -40.0098
LeftArm  53.1654 35.5556 -1.44805
LeftForeArm  -163.757 -77.9806 -140.204
LeftHand  -0.25398 0.0180481 5.50724
RightShoulder  4.22837 9.36803 26.8037
RightArm  50.1773 -33.4241 2.80999
RightForeArm  -165.082 69.9598 156.471
RightHand  -6.71101 23.4233 -26.957
LeftUpLeg  8.58496 10.1223 13.9401
LeftLeg  5.72108 14.7009 -0.582205
LeftFoot  -6.41814 0.374039 -7.79916
LeftToes  1.06246e-005 4.65855e-005 -8.18503e-006
285
root  -15.1754 40.7145 -12.7736 166.195 -77.3099 -168.641
RightUpLeg  -0.622199 -6.88455 -0.536403
RightLeg  8.16429 -0.475583 4.40359
RightFoot  -3.62698 0.246929 -3.91931
RightToes  0.00048216 0.542163 -0.142577
Spine  -5.18529 -1.46859 7.7543
Spine1  20.4265 -3.87347 5.35531
HEad  -20.112 9.9423 7.20262
LeftShoulder1  9.33249 -16.737 -39.8527
LeftArm  52.7417 35.7379 -1.50205
LeftForeArm  -163.22 -77.8639 -140.691
LeftHand  -0.25398 0.0180481 5.50724
RightShoulder  4.23766 9.38925 26.8222
RightArm  50.2391 -33.1022 3.02243
RightForeArm  -165.693 70.1989 156.103
RightHand  -6.81406 23.4974 -27.2799
LeftUpLeg  8.03086 10.2151 14.0314
LeftLeg  5.69256 14.4067 -0.618316
LeftFoot  -6.17733 0.38614 -7.73506
LeftToes  1.06246e-005 4.65855e-005 -8.18503e-006
286
root  -15.0677 40.715 -12.8761 166.23 -77.7258 -168.399
RightUpLeg  -0.996863 -6.85799 -0.372653
RightLeg  8.09514 -0.977804 4.44926
RightFoot  -3.51893 0.26004 -4.11295
RightToes  0.00048216 0.542163 -0.142577
Spine  -4.68145 -1.49341 7.90293
Spine1  20.5967 -3.70894 4.90097
HEad  -19.7214 9.67661 7.09895
LeftShoulder1  9.25298 -16.6739 -39.616
LeftArm  52.4736 35.6731 -1.51731
LeftForeArm  -162.432 -77.703 -141.351
LeftHand  -0.25398 0.0180481 5.50724
RightShoulder  4.27175 9.44238 26.9551
RightArm  50.5171 -32.4919 3.11752
RightForeArm  -166.487 70.498 155.629
RightHand  -7.01149 23.7698 -27.7742
LeftUpLeg  7.40633 10.2889 14.0983
LeftLeg  5.78096 13.977 -0.570775
LeftFoot  -5.97781 0.395539 -7.67273
LeftToes  1.06246e-005 4.65855e-005 -8.18503e-006
287
root  -14.9603 40.716 -12.9692 165.894 -78.3392 -167.856
RightUpLeg  -1.2356 -6.90582 -0.271774
RightLeg  7.95251 -1.5785 4.54969
RightFoot  -3.43348 0.265756 -4.18113
RightToes  0.00048216 0.542163 -0.142577
Spine  -4.15888 -1.54496 7.9671
Spine1  20.8313 -3.58859 4.50755
HEad  -19.4569 9.2586 6.91461
LeftShoulder1  9.18947 -16.6347 -39.4014
LeftArm  52.3681 35.4028 -1.4448
LeftForeArm  -161.558 -77.5267 -142.055
LeftHand  -0.25398 0.0180481 5.50724
RightShoulder  4.30919 9.49898 27.1044
RightArm  50.8694 -31.7967 3.24537
RightForeArm  -167.458 70.85 155.047
RightHand  -7.28158 24.174 -28.4042
LeftUpLeg  6.77929 10.3106 14.161
LeftLeg  5.89568 13.3722 -0.482853
LeftFoot  -5.78108 0.409322 -7.70836
LeftToes  1.06246e-005 4.65855e-005 -8.18503e-006
288
root  -14.8533 40.7173 -13.0573 165.556 -79.0608 -167.238
RightUpLeg  -1.53735 -6.9557 -0.203621
RightLeg  7.77913 -2.23743 4.64067
RightFoot  -3.36807 0.263067 -4.09782
RightToes  0.00048216 0.542163 -0.142577
Spine  -3.74251 -1.54591 7.86408
Spine1  21.0181 -3.46513 4.2659
HEad  -19.1003 8.67115 6.53686
LeftShoulder1  9.18258 -16.6756 -39.2805
LeftArm  52.3803 35.1314 -1.26446
LeftForeArm  -161.05 -77.3908 -142.559
LeftHand  -0.25398 0.0180481 5.50724
RightShoulder  4.321 9.53227 27.1105
RightArm  51.2638 -31.1963 3.53533
RightForeArm  -168.796 71.2639 154.313
RightHand  -7.59675 24.5962 -29.1618
LeftUpLeg  6.05844 10.3267 14.1935
LeftLeg  5.97526 12.7019 -0.436154
LeftFoot  -5.56018 0.429263 -7.83394
LeftToes  1.06246e-005 4.65855e-005 -8.18503e-006
289
root  -14.7381 40.7206 -13.1329 165.489 -79.7659 -166.761
RightUpLeg  -2.02077 -6.9595 -0.141328
RightLeg  7.61474 -2.91085 4.67582
RightFoot  -3.263 0.259891 -3.98941
RightToes  0.00048216 0.542163 -0.142577
Spine  -3.39107 -1.4646 7.77224
Spine1  21.0185 -3.22906 3.9595
HEad  -18.6653 8.02872 5.88432
LeftShoulder1  9.20476 -16.7692 -39.1837
LeftArm  52.4852 34.9574 -1.00674
LeftForeArm  -160.721 -77.2562 -143.021
LeftHand  -0.25398 0.0180481 5.50724
RightShoulder  4.29875 9.52275 26.9588
RightArm  51.7012 -30.7458 3.96952
RightForeArm  -170.174 71.7155 153.485
RightHand  -7.85692 24.9266 -29.7866
LeftUpLeg  5.21161 10.3701 14.1663
LeftLeg  6.01051 12.0902 -0.459717
LeftFoot  -5.32451 0.45094 -7.96533
LeftToes  1.06246e-005 4.65855e-005 -8.18503e-006
290
root  -14.616 40.7274 -13.1918 165.636 -80.4334 -166.462
RightUpLeg  -2.57263 -6.96695 -0.113215
RightLeg  7.44604 -3.56173 4.69499
RightFoot  -3.08867 0.267045 -3.98735
RightToes  0.00048216 0.542163 -0.142577
Spine  -3.02462 -1.34232 7.78103
Spine1  20.9147 -2.87036 3.44138
HEad  -18.3728 7.42964 5.03704
LeftShoulder1  9.20348 -16.8374 -39.0318
LeftArm  52.6566 34.7985 -0.702901
LeftForeArm  -159.965 -77.0267 -143.812
LeftHand  -0.25398 0.0180481 5.50724
RightShoulder  4.26569 9.48831 26.7859
RightArm  52.1162 -30.4067 4.462
RightForeArm  -171.256 72.1879 152.621
RightHand  -7.95535 25.0483 -30.0213
LeftUpLeg  4.35733 10.3801 14.0693
LeftLeg  5.96687 11.5806 -0.526632
LeftFoot  -5.06603 0.472795 -8.0628
LeftToes  1.06246e-005 4.65855e-005 -8.18503e-006
